<svg width="776" height="776" viewBox="0 0 776 776" fill="none" xmlns="http://www.w3.org/2000/svg">
<circle cx="388" cy="388" r="382" fill="#50FA7B" stroke="black" stroke-width="12"/>
<rect x="547.797" y="89" width="15" height="28" transform="rotate(45 547.797 89)" fill="black"/>
<rect x="528" y="667.609" width="15" height="28" transform="rotate(-45 528 667.609)" fill="black"/>
<rect x="201" y="99.6094" width="15" height="28" transform="rotate(-45 201 99.6094)" fill="black"/>
<rect x="82" y="217.609" width="15" height="28" transform="rotate(-45 82 217.609)" fill="black"/>
<rect x="101.797" y="535" width="15" height="28" transform="rotate(45 101.797 535)" fill="black"/>
<rect x="650" y="545.609" width="15" height="28" transform="rotate(-45 650 545.609)" fill="black"/>
<rect x="669.797" y="207" width="15" height="28" transform="rotate(45 669.797 207)" fill="black"/>
<rect x="220.797" y="657" width="15" height="28" transform="rotate(45 220.797 657)" fill="black"/>
<path d="M368.535 104H356.535V65.28H342.775V57.04H345.015C350.935 57.04 354.935 55.68 357.575 50.4H368.535V104ZM419.981 104H372.381V96.32C372.381 86.88 376.461 82 387.741 78.24L401.501 73.76C406.301 72.08 408.061 70.48 408.061 66.96C408.061 62.88 405.821 60.56 397.021 60.56C387.181 60.56 384.221 63.52 384.221 69.44V70.48H372.461V69.44C372.461 59.04 379.581 49.6 397.421 49.6C413.581 49.6 420.141 56.96 420.141 67.12C420.141 76.64 413.901 81.36 404.381 84L392.701 87.2C387.501 88.8 385.021 90.32 385.021 94.56L399.021 93.2H419.981V104Z" fill="black"/>
<path d="M383.436 732.8C363.916 732.8 355.916 724.24 355.916 705.28C355.916 686.64 366.396 677.6 382.396 677.6C397.036 677.6 406.476 684.64 406.476 695.6V696.24H393.116V695.6C393.116 690.96 390.076 689.12 382.396 689.12C372.556 689.12 368.716 692.24 368.716 703.2V706.72H369.596C371.836 702.4 377.596 698.88 387.196 698.88C400.396 698.88 407.756 704.24 407.756 715.2C407.756 725.92 399.356 732.8 383.436 732.8ZM382.796 721.28C392.316 721.28 395.196 719.04 395.196 714.32C395.196 709.36 392.396 707.2 382.876 707.2C372.796 707.2 369.676 709.36 369.676 714.16C369.676 718.96 372.876 721.28 382.796 721.28Z" fill="black"/>
<path d="M68.7559 405.8C54.0359 405.8 44.6759 398.76 44.6759 387.8V387.16H58.0359V387.8C58.0359 392.44 60.9959 394.28 68.7559 394.28C78.1959 394.28 81.9559 391.08 81.9559 380.04V376.52H81.0759C78.8359 380.92 73.0759 384.52 63.4759 384.52C50.2759 384.52 42.9159 379.16 42.9159 368.2C42.9159 357.48 51.3159 350.6 67.2359 350.6C86.7559 350.6 94.7559 359.08 94.7559 377.88C94.7559 396.68 84.4359 405.8 68.7559 405.8ZM67.8759 376.2C77.8759 376.2 80.9959 373.96 80.9959 369.08C80.9959 364.44 77.7959 362.12 67.8759 362.12C58.3559 362.12 55.4759 364.36 55.4759 369.08C55.4759 374.04 58.2759 376.2 67.8759 376.2Z" fill="black"/>
<path d="M701.604 405.8C684.084 405.8 676.164 398.68 676.164 386.84V385.56H688.884V386.84C688.884 392.28 690.404 394.28 701.044 394.28C711.124 394.28 714.244 392.68 714.244 388.04C714.244 384.04 711.684 382.36 706.644 382.36H691.204V372.52H705.524C710.164 372.52 712.244 370.84 712.244 367.48C712.244 363.72 710.004 362.12 700.884 362.12C691.284 362.12 688.884 364.12 688.884 369.56V369.96H676.164V369.56C676.164 358.28 684.484 350.6 701.924 350.6C716.244 350.6 724.164 355.48 724.164 364.92C724.164 371.08 720.484 375.24 713.524 376.12V377C721.364 378.12 726.484 382.12 726.484 389.96C726.484 400.36 717.204 405.8 701.604 405.8Z" fill="black"/>
<circle cx="386.5" cy="385.5" r="12.5" fill="black"/>
</svg>
